<?xml version="1.0" encoding="UTF-8" standalone="no"?>
<!-- Created with Inkscape (http://www.inkscape.org/) -->

<svg
   version="1.1"
   id="svg1"
   width="1293"
   height="626.17096"
   viewBox="0 0 1293 626.17096"
   sodipodi:docname="MEM-logo.svg"
   inkscape:version="1.4.3 (0d15f75, 2025-12-25)"
   inkscape:export-filename="MEM-logo-735x356.png"
   inkscape:export-xdpi="54.570766"
   inkscape:export-ydpi="54.570766"
   xmlns:inkscape="http://www.inkscape.org/namespaces/inkscape"
   xmlns:sodipodi="http://sodipodi.sourceforge.net/DTD/sodipodi-0.dtd"
   xmlns="http://www.w3.org/2000/svg"
   xmlns:svg="http://www.w3.org/2000/svg">
  <defs
     id="defs1" />
  <sodipodi:namedview
     id="namedview1"
     pagecolor="#ffffff"
     bordercolor="#666666"
     borderopacity="1.0"
     inkscape:showpageshadow="2"
     inkscape:pageopacity="0.0"
     inkscape:pagecheckerboard="0"
     inkscape:deskcolor="#d1d1d1"
     inkscape:zoom="0.39404297"
     inkscape:cx="407.31598"
     inkscape:cy="267.7373"
     inkscape:window-width="1920"
     inkscape:window-height="1009"
     inkscape:window-x="-8"
     inkscape:window-y="-8"
     inkscape:window-maximized="1"
     inkscape:current-layer="g1" />
  <g
     inkscape:groupmode="layer"
     inkscape:label="Image"
     id="g1"
     transform="translate(-111.04898,-196.43786)">
    <path
       style="fill:#000000"
       d="m 182.04898,777.22864 c -6.47746,-0.8974 -19.04341,-3.24873 -29.68177,-8.8935 -12.04748,-6.39246 -39.54794,-25.70913 -40.42563,-50.01012 -0.71427,-19.77658 -0.8926,46.09698 -0.8926,-202.6753 V 319.47811 l 2.75912,-8.79659 c 9.70988,-30.95691 31.19257,-51.81357 61.74088,-59.94176 l 8.5,-2.26165 574,-52.04025 c 0,0 574.21522,52.09865 580.83622,53.89533 31.8202,8.63477 54.592,31.31139 62.9079,62.64492 l 2.2559,8.5 v 194.67161 189.28812 l -2.2793,8.3366 c -8.2222,30.0728 -28.2804,51.01125 -58.7207,61.2979 l -7,2.3655 -578.03781,45.171 c 0,0 -574.31221,-45.1518 -575.96221,-45.3802 z M 1329.049,744.42694 c 19.8157,-4.1788 35.86,-19.5242 40.9158,-39.1334 1.4213,-5.5125 1.5842,0.77626 1.5842,-189.32807 0,-186.48923 -0.1826,-189.28178 -1.5229,-194.52726 -4.8925,-19.14826 -19.5956,-33.94468 -38.8158,-39.06214 -4.3488,-1.15789 -569.61507,-52.80298 -573.20122,-53.42634 0,0 -568.6834,52.19362 -574,53.55883 -10.15431,2.60745 -16.43999,6.29091 -24.55553,14.38975 -8.20882,8.19193 -12.77683,16.17974 -14.79949,25.87902 -0.78688,3.77333 -1.10166,43.07315 -1.09321,194.17161 0.0101,180.73999 0.22373,184.2849 1.44089,188.858 5.37326,20.1881 22.42495,35.5813 43.31063,39.0981 2.60513,0.4387 569.23661,45.9656 569.23661,45.9656 0,0 565.37222,-45.1518 571.50002,-46.4437 z M 222.77149,669.09302 220.54898,667.53631 V 515.14972 362.76313 l 2.22251,-1.55671 c 1.87723,-1.31486 6.34364,-1.55458 28.75,-1.54305 14.59012,0.008 27.48448,0.27048 28.65413,0.58438 1.33653,0.35867 17.12644,20.63766 42.5,54.58274 53.0509,70.97221 54.10123,72.31923 56.39038,72.31923 1.94734,0 4.86897,-3.66565 48.98298,-61.45685 11,-14.41047 26.42235,-34.60286 34.27188,-44.872 7.84953,-10.26913 15.27453,-19.22702 16.5,-19.90641 1.60305,-0.88872 9.38956,-1.23939 27.75561,-1.25 21.50256,-0.0124 25.87792,0.2307 27.75,1.54196 l 2.22251,1.55671 v 152.38659 152.38659 l -2.22251,1.55671 c -1.88204,1.31823 -6.47766,1.5567 -30,1.5567 -26.44416,0 -27.87349,-0.096 -29.77749,-2 -1.97161,-1.97161 -2,-3.33333 -2,-95.92857 0,-82.94888 -0.17872,-94.1073 -1.52894,-95.45751 -1.96527,-1.96527 -3.60242,-1.28957 -6.50471,2.6847 -1.28583,1.76076 -17.23544,21.87638 -35.44356,44.70138 -18.20813,22.825 -36.11997,45.38382 -39.8041,50.13072 -6.95543,8.96187 -9.48608,10.59405 -13.28362,8.56746 -1.23488,-0.659 -21.45653,-25.16068 -44.937,-54.44818 -23.48047,-29.2875 -43.23318,-53.25 -43.89492,-53.25 -3.58939,0 -3.60315,0.36933 -3.60315,96.7 0,92.96667 -0.0283,94.32828 -2,96.3 -1.90224,1.90224 -3.33333,2 -29.27749,2 -23.0698,0 -27.62033,-0.24013 -29.5,-1.5567 z m 757,0 -2.2225,-1.55671 V 515.14972 362.76313 l 2.2225,-1.55671 c 1.87699,-1.3147 6.3783,-1.5567 28.95301,-1.5567 16.6852,0 27.5936,0.39764 29.0274,1.05812 1.2634,0.58197 23.4289,29.20729 49.2567,63.61182 25.8278,34.40453 47.5129,62.76603 48.1893,63.02556 0.6763,0.25952 1.8758,0.0967 2.6655,-0.36182 0.7898,-0.45852 17.0965,-21.30868 36.2372,-46.33368 55.0787,-72.01097 60.5031,-78.95893 62.4657,-80.00927 1.0868,-0.58162 12.6148,-0.99073 27.917,-0.99073 24.7324,0 26.168,0.10231 28.0657,2 1.9824,1.98238 2,3.33333 2,153.30887 0,129.03917 -0.2087,151.59457 -1.4182,153.25 -1.3365,1.82927 -3.0426,1.95813 -29.6067,2.23621 -24.2551,0.25391 -28.5225,0.0763 -30.5818,-1.27305 l -2.3933,-1.56814 V 573.1981 c 0,-84.48987 -0.1651,-94.57057 -1.5714,-95.97695 -0.8643,-0.86429 -1.9701,-1.57143 -2.4574,-1.57143 -0.4873,0 -3.3014,3.0375 -6.2536,6.75 -61.726,77.6233 -80.7981,101.03778 -82.706,101.53672 -1.2171,0.31828 -3.1801,0.11715 -4.3623,-0.44694 -1.1821,-0.5641 -11.196,-12.34631 -22.2531,-26.1827 -48.8755,-61.16066 -65.6366,-81.65708 -66.7759,-81.65708 -3.6098,0 -3.6203,0.28253 -3.6203,97.1433 v 94.74329 l -2.2225,1.55671 c -1.8786,1.31582 -6.4091,1.5567 -29.2775,1.5567 -22.86841,0 -27.39892,-0.24088 -29.27751,-1.5567 z"
       id="path1"
       sodipodi:nodetypes="cssscssccsscccssccccsssscssssssccscccscsssssssscccsssssssssssssssscccsssssssssssssscssscssssscsss" />
    <path
       d="m 619.02458,546.98502 c -6.79252,-2.60845 -13.39764,-9.09585 -16.92594,-16.62427 -2.16857,-4.62715 -2.66502,-7.11812 -2.64457,-13.26954 0.0445,-13.3887 6.9834,-24.02944 19.42832,-29.7931 7.36405,-3.41054 18.14636,-3.4729 25.43619,-0.1471 5.92322,2.70231 12.86653,8.9191 15.80934,14.15513 l 2.16838,3.85811 h 127.19914 64.39193 l 1.97054,-3.86257 c 2.82945,-5.54618 11.19341,-12.67515 17.34987,-14.78806 15.8284,-5.43232 32.54785,1.42977 39.90725,16.37903 6.3452,12.88884 3.7552,27.57109 -6.6471,37.68095 -6.6039,6.4182 -13.75648,8.90563 -24.03991,8.36025 -11.86865,-0.62946 -19.60501,-5.20516 -26.18078,-15.48476 l -3.38068,-5.28484 H 789.25438 662.835 l -1.70349,3.17954 c -3.08787,5.76348 -9.31528,11.72022 -15.46595,14.79375 -5.194,2.59547 -7.13843,3.01929 -13.64726,2.9746 -5.17389,-0.0355 -9.31048,-0.71269 -12.99372,-2.12712 z"
       style="fill:none;stroke:#000000;stroke-width:8;stroke-dasharray:none;stroke-opacity:1;paint-order:markers fill stroke"
       id="path1-8" />
    <path
       d="m 619.02458,648.40028 c -6.79252,-2.60845 -13.39764,-9.09585 -16.92594,-16.62427 -2.16857,-4.62715 -2.66502,-7.11812 -2.64457,-13.26954 0.0445,-13.3887 6.9834,-24.02944 19.42832,-29.7931 7.36405,-3.41054 18.14636,-3.4729 25.43619,-0.1471 5.92322,2.70231 12.86653,8.9191 15.80934,14.15513 l 2.16838,3.85811 h 127.19914 64.39193 l 1.97054,-3.86257 c 2.82945,-5.54618 11.19341,-12.67515 17.34987,-14.78806 15.8284,-5.43232 32.54785,1.42977 39.90725,16.37903 6.3452,12.88884 3.7552,27.57109 -6.6471,37.68095 -6.6039,6.4182 -13.75648,8.90563 -24.03991,8.36025 -11.86865,-0.62946 -19.60501,-5.20516 -26.18078,-15.48476 l -3.38068,-5.28484 H 789.25438 662.835 l -1.70349,3.17954 c -3.08787,5.76348 -9.31528,11.72022 -15.46595,14.79375 -5.194,2.59547 -7.13843,3.01929 -13.64726,2.9746 -5.17389,-0.0355 -9.31048,-0.71269 -12.99372,-2.12712 z"
       style="fill:#000000"
       id="path1-8-1" />
    <path
       d="m 619.02458,445.56977 c -6.79252,-2.60845 -13.39764,-9.09585 -16.92594,-16.62427 -2.16857,-4.62715 -2.66502,-7.11812 -2.64457,-13.26954 0.0445,-13.3887 6.9834,-24.02944 19.42832,-29.7931 7.36405,-3.41054 18.14636,-3.4729 25.43619,-0.1471 5.92322,2.70231 12.86653,8.9191 15.80934,14.15513 l 2.16838,3.85811 h 127.19914 64.39193 l 1.97054,-3.86257 c 2.82945,-5.54618 11.19341,-12.67515 17.34987,-14.78806 15.8284,-5.43232 32.54785,1.42977 39.90725,16.37903 6.3452,12.88884 3.7552,27.57109 -6.6471,37.68095 -6.6039,6.4182 -13.75648,8.90563 -24.03991,8.36025 -11.86865,-0.62946 -19.60501,-5.20516 -26.18078,-15.48476 L 852.86656,426.749 H 789.25438 662.835 l -1.70349,3.17954 c -3.08787,5.76348 -9.31528,11.72022 -15.46595,14.79375 -5.194,2.59547 -7.13843,3.01929 -13.64726,2.9746 -5.17389,-0.0355 -9.31048,-0.71269 -12.99372,-2.12712 z"
       style="fill:#000000"
       id="path1-8-1-2" />
  </g>
</svg>
